<?xml version="1.0" encoding="utf-8"?>
<!-- Generator: Adobe Illustrator 16.1.0, SVG Export Plug-In . SVG Version: 6.00 Build 0)  -->
<!DOCTYPE svg PUBLIC "-//W3C//DTD SVG 1.1//EN" "http://www.w3.org/Graphics/SVG/1.1/DTD/svg11.dtd">
<svg version="1.1" id="Layer_1" xmlns="http://www.w3.org/2000/svg" xmlns:xlink="http://www.w3.org/1999/xlink" x="0px" y="0px"
	 width="512px" height="512px" viewBox="0 0 512 512" enable-background="new 0 0 512 512" xml:space="preserve">
<path fill='rgb(0,149,217)' d="M256,64C132.281,64,32,138.765,32,230.938C32,272,63.094,318.749,96,347.843L64,448l97.251-65.907
	c28.813,10.064,60.813,15.814,94.749,15.814c123.719,0,224-74.72,224-166.97C480,138.765,379.719,64,256,64z M256,365.907
	c-29.219,0-57.562-4.72-84.189-14.032l-15.187-5.28l-34,22.999l10.188-31.907l-15.625-13.812C86.375,296.624,64,257.533,64,230.938
	C64,156.531,150.125,96,256,96s192,60.531,192,134.938C448,305.376,361.875,365.907,256,365.907z"/>
</svg>
