<?xml version="1.0" encoding="utf-8"?>
<!-- Generator: Adobe Illustrator 17.1.0, SVG Export Plug-In . SVG Version: 6.00 Build 0)  -->
<!DOCTYPE svg PUBLIC "-//W3C//DTD SVG 1.0//EN" "http://www.w3.org/TR/2001/REC-SVG-20010904/DTD/svg10.dtd">
<svg version="1.0" id="Layer_1" xmlns="http://www.w3.org/2000/svg" xmlns:xlink="http://www.w3.org/1999/xlink" x="0px" y="0px"
	 viewBox="0 0 17.8 17.8" enable-background="new 0 0 17.8 17.8" xml:space="preserve">
<path fill="#FFF" d="M17.5,13l-4.1-4.1l4.1-4.1c0.4-0.4,0.4-1,0-1.4l-3.1-3.1c-0.4-0.4-1-0.4-1.4,0L8.9,4.4L4.8,0.3
	c-0.4-0.4-1-0.4-1.4,0L0.3,3.4c-0.4,0.4-0.4,1,0,1.4l4.1,4.1L0.3,13c-0.4,0.4-0.4,1,0,1.4l3.1,3.1c0.4,0.4,1,0.4,1.4,0l4.1-4.1
	l4.1,4.1c0.4,0.4,1,0.4,1.4,0l3.1-3.1C17.9,14,17.9,13.4,17.5,13z"/>
</svg>
