<?xml version="1.0" encoding="utf-8"?>
<!-- Generator: Adobe Illustrator 17.1.0, SVG Export Plug-In . SVG Version: 6.00 Build 0)  -->
<!DOCTYPE svg PUBLIC "-//W3C//DTD SVG 1.0//EN" "http://www.w3.org/TR/2001/REC-SVG-20010904/DTD/svg10.dtd">
<svg version="1.0" id="Layer_1" xmlns="http://www.w3.org/2000/svg" xmlns:xlink="http://www.w3.org/1999/xlink" x="0px" y="0px"
	 viewBox="0 0 54 43.8" enable-background="new 0 0 54 43.8" xml:space="preserve">
<g>
	<g>
		<path fill="#999" d="M3.6,43.8c-1.3,0-2.6-0.8-3.2-1.9c-0.6-1.1-0.5-2.4,0.3-3.5L6,30.9c-1.8-3-2.7-6.2-2.7-9.6
			C3.3,9.6,14.7,0,28.6,0S54,9.6,54,21.4S42.6,42.7,28.6,42.7c-3.8,0-7.4-0.7-10.8-2L4.7,43.6C4.3,43.7,3.9,43.8,3.6,43.8z
			 M28.6,4.7C17.2,4.7,8,12.2,8,21.4c0,2.9,1,5.8,2.8,8.3l1,1.4l-5.3,7.4l11.9-2.6l0.7,0.3c3,1.3,6.2,1.9,9.6,1.9
			c11.4,0,20.7-7.5,20.7-16.7S40,4.7,28.6,4.7z"/>
	</g>
	<path fill="#999" d="M18.4,33.9c-0.4-0.4-1.8-1.8-2.2-2.2c-0.4-0.4-0.5-1.4,0-1.9c0.5-0.5,3-3.4,3.8-4.2c-0.8-1.5-1.2-3.2-1.2-5
		c0-5.9,4.8-10.7,10.7-10.7c5.9,0,10.7,4.8,10.7,10.7c0,5.9-4.8,10.7-10.7,10.7c-1.8,0-3.5-0.4-5.1-1.3c-0.9,0.9-1.8,1.7-2.7,2.5
		c-0.4,0.3-1,0.9-1.4,1.3C19.9,34.2,18.8,34.3,18.4,33.9z M29.5,15.2c-3,0-5.4,2.4-5.4,5.4s2.4,5.4,5.4,5.4s5.4-2.4,5.4-5.4
		S32.5,15.2,29.5,15.2z"/>
	<path fill="#999" d="M29.1,17.7c-0.6,1.1-0.3,2.2,1,2.9c0.4,0.2,0.9,0.3,1,1.3c0.1,1.6-0.8,2.5-2,2.7c0.1,0,0.3,0,0.5,0
		c2.2,0,4-1.8,4-4c0-1.3-0.6-2.4-1.5-3.1C31.2,16.9,29.8,16.5,29.1,17.7z"/>
</g>
</svg>
