<?xml version="1.0" encoding="utf-8"?>
<!-- Generator: Adobe Illustrator 17.1.0, SVG Export Plug-In . SVG Version: 6.00 Build 0)  -->
<!DOCTYPE svg PUBLIC "-//W3C//DTD SVG 1.0//EN" "http://www.w3.org/TR/2001/REC-SVG-20010904/DTD/svg10.dtd">
<svg version="1.0" id="Layer_1" xmlns="http://www.w3.org/2000/svg" xmlns:xlink="http://www.w3.org/1999/xlink" x="0px" y="0px"
	 viewBox="0 0 132.6 94.3" enable-background="new 0 0 132.6 94.3" xml:space="preserve">
<path fill="#0096D6" d="M5.6,94.3c-2.1,0-4.1-1.2-5-3c-0.9-1.8-0.7-3.9,0.4-5.5l11.6-16.1c-5-6.9-7.7-14.6-7.7-22.5
	c0-12.8,6.8-24.8,19.1-33.7C36,4.8,51.9,0,68.7,0s32.7,4.8,44.7,13.4c12.3,8.9,19.1,20.9,19.1,33.7s-6.8,24.8-19.1,33.7
	c-12,8.7-27.8,13.4-44.7,13.4c-11.5,0-22.8-2.3-32.6-6.6L7.4,94.1C6.8,94.2,6.2,94.3,5.6,94.3z M37,80l1.1,0.5
	c9.1,4.2,19.7,6.4,30.7,6.4c31.1,0,56.4-17.8,56.4-39.8S99.8,7.4,68.7,7.4S12.3,25.2,12.3,47.2c0,7,2.7,14,7.8,20.1l1.8,2.2
	L10.1,85.9L37,80z"/>
<g>
	<path fill="#0096D6" d="M54,36.5h-5.3v-6.2h-4.3v6.2H39v-16h5.3V26h4.3v-5.5H54V36.5z"/>
	<path fill="#0096D6" d="M71.1,36.5h-5.3l-0.7-2.2h-4.9l-0.7,2.2h-5.3l5.8-16h5.2L71.1,36.5z M64.2,30.7c-0.3-1.1-0.6-2.1-0.9-3.1
		c-0.4-1.4-0.6-2.5-0.6-3.3c0,0.7-0.1,1.4-0.4,2.3l-1.1,4.1H64.2z"/>
	<path fill="#0096D6" d="M83.8,20.5l-4.9,16h-5.6l-4.9-16h5.4l1.9,8.5c0.3,1.2,0.4,2.3,0.4,3.3c0-1.1,0.1-2.1,0.4-3.3l1.9-8.5H83.8z
		"/>
	<path fill="#0096D6" d="M97.9,36.5h-14v-16h13.9v4.4h-8.5v1.5h7.2v4h-7.2v1.8h8.7V36.5z"/>
	<path fill="#0096D6" d="M52.4,41.4l-5.5,10.1v5.9h-5.4v-5.9l-5.9-10.1h6.1l2.1,4.9c0.2,0.5,0.4,1.1,0.4,1.6c0-0.6,0.1-1.1,0.4-1.6
		l2.4-4.9H52.4z"/>
	<path fill="#0096D6" d="M67.2,49.4c0,2.5-0.8,4.5-2.3,6c-1.5,1.5-3.5,2.2-6,2.2s-4.5-0.8-6-2.3c-1.5-1.5-2.2-3.5-2.2-6
		s0.7-4.5,2.2-6c1.5-1.5,3.5-2.3,6-2.3c2.5,0,4.5,0.8,6,2.3C66.4,44.9,67.2,46.9,67.2,49.4z M61.7,49.4c0-1.1-0.2-2-0.5-2.8
		c-0.5-1-1.2-1.5-2.2-1.5c-1,0-1.7,0.5-2.2,1.4c-0.3,0.7-0.5,1.7-0.5,2.8c0,2.8,0.9,4.2,2.7,4.2c1,0,1.7-0.5,2.2-1.4
		C61.5,51.4,61.7,50.5,61.7,49.4z"/>
	<path fill="#0096D6" d="M83.2,51.7c0,2-0.8,3.6-2.3,4.6c-1.3,0.9-3,1.3-5.2,1.3c-2.2,0-3.9-0.4-5.2-1.3c-1.5-1-2.3-2.6-2.3-4.6
		V41.4h5.3v9.9c0,1.6,0.7,2.3,2.1,2.3c1.4,0,2.1-0.8,2.1-2.3v-9.9h5.3V51.7z"/>
	<path fill="#0096D6" d="M99.9,57.3h-5.3c-0.2-0.6-0.4-1.3-0.4-2C94,54,93.9,53.2,93.9,53c-0.3-0.7-0.9-1.1-1.9-1.1h-2v5.5h-5.3v-16
		h9.8c3.3,0,4.9,1.5,4.9,4.5c0,2.1-1.1,3.4-3.3,3.8h0.2c0.2,0,0.4,0,0.6,0.1c1.1,0.2,1.8,0.9,2.1,1.8c0.2,0.5,0.3,1.5,0.3,3
		C99.3,55.3,99.5,56.2,99.9,57.3z M94.1,46.9c0-1-0.6-1.5-1.9-1.5H90v2.9h2c0.7,0,1.2-0.1,1.5-0.2C93.9,47.9,94.1,47.5,94.1,46.9z"
		/>
	<path fill="#0096D6" d="M62,72.7c0,0.5-0.1,1.1-0.2,1.7c-0.4,1.6-1.3,2.7-2.7,3.3c-1.1,0.5-2.5,0.8-4.4,0.8c-2.2,0-3.9-0.4-5.2-1.3
		c-1.5-1-2.2-2.5-2.2-4.6h5.1c0,0.1,0,0.1,0,0.2c0,1.3,0.8,2,2.3,2c1.4,0,2.1-0.4,2.1-1.2c0-0.4-0.4-0.8-1.2-1
		c-0.7-0.2-1.7-0.5-3.1-0.9c-1.5-0.4-2.5-0.9-3.1-1.3c-0.9-0.7-1.4-1.7-1.4-2.9c0-1.9,0.7-3.3,2-4.2c1.1-0.8,2.7-1.2,4.6-1.2
		c1.9,0,3.5,0.3,4.7,1c1.6,0.9,2.4,2.2,2.4,3.9c0,0.2,0,0.3,0,0.5h-5v-0.2c0-1.1-0.6-1.6-1.9-1.6c-0.4,0-0.7,0.1-1,0.2
		c-0.4,0.2-0.5,0.5-0.5,0.8c0,0.4,0.4,0.7,1.2,1c0.5,0.2,1.1,0.3,1.7,0.5c0.2,0.1,0.5,0.1,0.8,0.3c1.7,0.5,2.8,0.9,3.4,1.3
		C61.4,70.4,62,71.4,62,72.7z"/>
	<path fill="#0096D6" d="M78.7,78.1h-5.3L72.7,76h-4.9l-0.7,2.2h-5.3l5.8-16h5.2L78.7,78.1z M71.8,72.4c-0.3-1.1-0.6-2.1-0.9-3.1
		c-0.4-1.4-0.6-2.5-0.6-3.3c0,0.7-0.1,1.4-0.4,2.3l-1.1,4.1H71.8z"/>
	<path fill="#0096D6" d="M91.1,62.2l-5.5,10.1v5.9h-5.4v-5.9l-5.9-10.1h6.1l2.1,4.9c0.2,0.5,0.4,1.1,0.4,1.6c0-0.6,0.1-1.1,0.4-1.6
		l2.4-4.9H91.1z"/>
</g>
</svg>
