<?xml version="1.0" encoding="utf-8"?>
<!-- Generator: Adobe Illustrator 17.1.0, SVG Export Plug-In . SVG Version: 6.00 Build 0)  -->
<!DOCTYPE svg PUBLIC "-//W3C//DTD SVG 1.0//EN" "http://www.w3.org/TR/2001/REC-SVG-20010904/DTD/svg10.dtd">
<svg version="1.0" xmlns="http://www.w3.org/2000/svg" xmlns:xlink="http://www.w3.org/1999/xlink" x="0px" y="0px"
	 viewBox="0 0 54.2 43.9" enable-background="new 0 0 54.2 43.9" xml:space="preserve">
<g>
	<g>
		<path fill='#999' d="M3.6,43.9c-1.3,0-2.6-0.8-3.2-1.9c-0.6-1.1-0.5-2.4,0.3-3.5L6,31c-1.8-3-2.7-6.3-2.7-9.6
			C3.3,9.6,14.7,0,28.7,0c14,0,25.4,9.6,25.4,21.4S42.8,42.9,28.7,42.9c-3.8,0-7.4-0.7-10.8-2L4.7,43.7C4.3,43.8,3.9,43.9,3.6,43.9z
			 M28.7,4.7C17.3,4.7,8,12.2,8,21.4c0,2.9,1,5.8,2.8,8.3l1,1.4l-5.3,7.4l12-2.6l0.7,0.3c3,1.3,6.3,1.9,9.7,1.9
			c11.4,0,20.7-7.5,20.7-16.7S40.2,4.7,28.7,4.7z"/>
	</g>
	<g>
		<path fill='#999' d="M38.5,16.9c0,1.8-0.6,3.2-1.8,4.3c-1.1,0.7-2.2,1.4-3.3,2.1c-1.2,0.8-1.8,1.8-1.8,3.1v0.3h-6.3
			c0-0.2,0-0.4,0-0.7c0-1.8,0.3-3.1,0.8-3.9c0.5-0.7,1.6-1.6,3.2-2.5c1.3-0.7,2-1.6,2-2.5c0-0.7-0.3-1.3-0.8-1.7
			c-0.5-0.4-1.1-0.6-1.9-0.6c-1.8,0-2.7,1.2-2.7,3.5h-7.1c0-2.9,1-5.1,2.9-6.9c1.9-1.6,4.2-2.4,7.1-2.4c2.6,0,4.8,0.7,6.5,2
			C37.5,12.4,38.5,14.4,38.5,16.9z M31.7,34.7h-6.4v-6.3h6.4V34.7z"/>
	</g>
</g>
</svg>
