<?xml version="1.0" encoding="utf-8"?>
<!-- Generator: Adobe Illustrator 17.1.0, SVG Export Plug-In . SVG Version: 6.00 Build 0)  -->
<!DOCTYPE svg PUBLIC "-//W3C//DTD SVG 1.0//EN" "http://www.w3.org/TR/2001/REC-SVG-20010904/DTD/svg10.dtd">
<svg version="1.0" id="Layer_1" xmlns="http://www.w3.org/2000/svg" xmlns:xlink="http://www.w3.org/1999/xlink" x="0px" y="0px"
	 viewBox="0 0 39 54.8" enable-background="new 0 0 39 54.8" xml:space="preserve">
<g>
	<g>
		<g>
			<path fill="#0096D6" d="M24.5,2.3c0.6,0.3,1,0.7,1.3,1.4c0.5,1.3,0.5,2.7,0,4c-0.2,0.5-0.5,1.1-0.7,1.7c-0.2,0.4-0.4,0.8-0.6,1.3
				c-0.4,0.9-0.9,2-1.2,3.1c-0.2,0.7-0.2,1.3-0.2,1.8c0,0.1,0,0.2,0,0.3c0,1.3,1,2.3,2.4,2.3l0.1,0l0.1,0c0.2,0,0.4,0,0.6,0l0.3,0
				l0.2,0c1.1,0,2.2,0,3.2,0c1.8,0,3.2,0.1,4.5,0.2l0.1,0c0.2,0,0.5,0,0.6,0.1c0.7,0.5,1.2,1.2,1.4,1.9c-0.1,0.2-0.2,0.3-0.3,0.5
				c-1.1,1.2-1.2,2.8-0.3,4.1c0.2,0.3,0.4,0.6,0.6,0.9c-0.2,0.2-0.4,0.5-0.6,0.7c-0.9,1-1.2,2.3-0.7,3.6c0,0.1,0.1,0.2,0.1,0.4
				c0.1,0.3,0.2,0.6,0.4,1c0,0,0,0-0.1,0.1c-0.4,0.4-0.8,0.8-1.2,1.2c-0.7,0.7-1,1.6-1,2.6c0,0.1,0,0.3,0,0.4c0,0.2,0,0.4,0,0.6
				c-0.4,0.4-0.8,0.9-1.3,1.3c-0.3,0.3-0.6,0.4-1,0.5c-0.2,0-0.4,0-0.7,0.1c-0.8,0.1-1.5,0.2-2.2,0.2l-0.1,0c-2.3,0-4.7-0.1-6.9-0.2
				c-1,0-2-0.1-3-0.3c-1.6-0.3-3.2-0.6-4.8-0.9c-0.6-0.1-1.2-0.2-1.8-0.3c0-3.6,0-7.3,0-10.9v-2.2c0.6-0.2,1.2-0.6,1.7-1.1
				c0.5-0.5,1.2-1.2,1.7-2c1.2-1.7,2.1-3.6,3.1-6.2c0.4-0.9,0.9-1.6,1.6-2.2c1.8-1.3,3.1-3.2,3.7-5.7C24.2,5.2,24.4,3.9,24.5,2.3
				 M23.9,0.1c-0.2,0-0.4,0-0.6,0c-0.5,0.1-0.7,0.5-0.7,1c-0.1,1.7-0.3,3.3-0.7,4.9c-0.5,1.8-1.3,3.4-2.9,4.5
				c-1.1,0.8-1.9,1.8-2.4,3.1c-0.8,2-1.7,4-2.9,5.8c-0.4,0.6-1,1.2-1.5,1.8c-0.4,0.5-1,0.7-1.7,0.7c0,0-0.1,0-0.1,0
				c-0.1,0-0.1,0-0.2,0c-0.3,0-0.3,0.1-0.3,0.5c0,5.2,0,10.4,0,15.6c0,0.3,0.1,0.5,0.4,0.5c2.6,0.5,5.2,1,7.8,1.4
				c1.1,0.2,2.2,0.2,3.2,0.3c2.3,0.1,4.6,0.2,6.9,0.2c0,0,0,0,0.1,0c1,0,2-0.1,3.1-0.2c0.8-0.1,1.5-0.4,2.1-0.9
				c0.6-0.5,1.1-1,1.6-1.6c0.3-0.3,0.5-0.8,0.4-1.3c0-0.4,0-0.7,0-1.1c0-0.4,0.1-0.8,0.4-1.1c0.4-0.4,0.8-0.8,1.2-1.2
				c0.7-0.7,0.9-1.4,0.5-2.3c-0.2-0.4-0.3-0.8-0.5-1.2c-0.2-0.6-0.1-1.1,0.3-1.6c0.3-0.3,0.6-0.7,0.9-1.1c0.5-0.6,0.5-1,0.1-1.7
				c-0.2-0.4-0.5-0.9-0.8-1.3c-0.4-0.6-0.4-1.2,0.1-1.8c0.2-0.3,0.4-0.6,0.7-0.9c0.2-0.3,0.3-0.6,0.2-1c-0.4-1.4-1.1-2.6-2.3-3.5
				c-0.5-0.4-1.1-0.4-1.7-0.5c-1.6-0.2-3.1-0.2-4.7-0.2c-1.2,0-2.3,0-3.5,0c-0.3,0-0.7,0-1,0c0,0,0,0,0,0c-0.2,0-0.3-0.1-0.4-0.3
				c0-0.5-0.1-1,0.1-1.4c0.3-1,0.7-2,1.2-3c0.4-1,1-2,1.4-3.1c0.6-1.8,0.6-3.6,0-5.3c-0.6-1.7-1.8-2.6-3.5-2.9
				C24.1,0.1,24,0.1,23.9,0.1L23.9,0.1z"/>
		</g>
		<g>
			<path fill="#0096D6" d="M4.8,23.1c0.5,0,1,0,1.5,0c0,4.8,0,9.7,0,14.5l-0.1,0c-0.4,0-0.7,0-1.1,0c-0.4,0-0.8,0-1.1,0
				c-0.6,0-1.1,0-1.7,0l0,0V23.1l1.1,0L4.8,23.1 M4.8,21.1c-0.9,0-1.8,0-2.8,0c0,0-0.1,0-0.1,0c0,0,0,0,0,0c-0.5,0-0.9,0.1-1.2,0.5
				c-0.2,0.3-0.3,0.6-0.5,0.9c0,5.3,0,10.6,0,15.8c0.3,1,1,1.4,2,1.4c0,0,0.1,0,0.1,0c0.5,0,1.1,0,1.6,0c0.8,0,1.5,0,2.3,0
				c0.1,0,0.3,0,0.4,0c1,0,1.7-0.7,1.7-1.7c0-5.1,0-10.1,0-15.2c0-1-0.6-1.7-1.7-1.7C6,21.1,5.4,21.1,4.8,21.1L4.8,21.1z"/>
		</g>
	</g>
	<g>
		<path fill="#0096D6" d="M8.7,46.1h1.1v7.7h3.7v0.9H8.7V46.1z"/>
		<path fill="#0096D6" d="M15,46.1h1.1v8.6H15V46.1z"/>
		<path fill="#0096D6" d="M18.3,46.1h1.1v4.3h0l3.6-4.3h1.2l-2.7,3.3l3.1,5.3h-1.2l-2.6-4.5L19.4,52v2.7h-1.1V46.1z"/>
		<path fill="#0096D6" d="M25.8,46.1h4.9V47h-3.8v2.7h3.2v0.9h-3.2v3.1h4v0.9h-5.1V46.1z"/>
	</g>
</g>
</svg>
