<?xml version="1.0" encoding="utf-8"?>
<!-- Generator: Adobe Illustrator 17.1.0, SVG Export Plug-In . SVG Version: 6.00 Build 0)  -->
<!DOCTYPE svg PUBLIC "-//W3C//DTD SVG 1.0//EN" "http://www.w3.org/TR/2001/REC-SVG-20010904/DTD/svg10.dtd">
<svg version="1.0" id="Layer_1" xmlns="http://www.w3.org/2000/svg" xmlns:xlink="http://www.w3.org/1999/xlink" x="0px" y="0px"
	 viewBox="0 0 54.2 43.9" enable-background="new 0 0 54.2 43.9" xml:space="preserve">
<g>
	<g>
		<path fill="#999" d="M3.6,43.9c-1.3,0-2.6-0.8-3.2-1.9c-0.6-1.1-0.5-2.4,0.3-3.5L6,31c-1.8-3-2.7-6.3-2.7-9.6
			C3.3,9.6,14.7,0,28.7,0c14,0,25.4,9.6,25.4,21.4S42.8,42.9,28.7,42.9c-3.8,0-7.4-0.7-10.8-2L4.7,43.7C4.3,43.8,3.9,43.9,3.6,43.9z
			 M28.7,4.7C17.3,4.7,8,12.2,8,21.4c0,2.9,1,5.8,2.8,8.3l1,1.4l-5.3,7.4l12-2.6l0.7,0.3c3,1.3,6.3,1.9,9.7,1.9
			c11.4,0,20.7-7.5,20.7-16.7S40.2,4.7,28.7,4.7z"/>
	</g>
	<g>
		<path fill="#999" d="M32.6,18.6c0,0.4-0.1,0.9-0.2,1.4c-0.2,0.8-0.3,1.3-0.3,1.4l-1,5.5h-4.9l-1-5.5c0-0.1-0.1-0.6-0.3-1.4
			c-0.1-0.5-0.2-1-0.2-1.4V9.4h7.9V18.6z M31.8,34.7h-6.3v-6.3h6.3V34.7z"/>
	</g>
</g>
</svg>
