<?xml version="1.0" encoding="utf-8"?>
<!-- Generator: Adobe Illustrator 17.1.0, SVG Export Plug-In . SVG Version: 6.00 Build 0)  -->
<!DOCTYPE svg PUBLIC "-//W3C//DTD SVG 1.0//EN" "http://www.w3.org/TR/2001/REC-SVG-20010904/DTD/svg10.dtd">
<svg version="1.0" id="Layer_1" xmlns="http://www.w3.org/2000/svg" xmlns:xlink="http://www.w3.org/1999/xlink" x="0px" y="0px"
	 viewBox="0 0 19.5 25.8" enable-background="new 0 0 19.5 25.8" xml:space="preserve">
<g>
	<path fill="#FFF" d="M19.5,7.9c0,1.8-0.6,3.2-1.8,4.3c-1.1,0.7-2.2,1.4-3.3,2.1c-1.2,0.8-1.8,1.8-1.8,3.1v0.3H6.4
		c0-0.2,0-0.4,0-0.7c0-1.8,0.3-3.1,0.8-3.9c0.5-0.7,1.6-1.6,3.2-2.5c1.3-0.7,2-1.6,2-2.5c0-0.7-0.3-1.3-0.8-1.7
		C11.1,6,10.5,5.8,9.8,5.8c-1.8,0-2.7,1.2-2.7,3.5H0c0-2.9,1-5.1,2.9-6.9C4.7,0.8,7.1,0,10,0c2.6,0,4.8,0.7,6.5,2
		C18.5,3.5,19.5,5.5,19.5,7.9z M12.8,25.8H6.4v-6.3h6.4V25.8z"/>
</g>
</svg>
