<?xml version="1.0" encoding="utf-8"?>
<!-- Generator: Adobe Illustrator 17.1.0, SVG Export Plug-In . SVG Version: 6.00 Build 0)  -->
<!DOCTYPE svg PUBLIC "-//W3C//DTD SVG 1.0//EN" "http://www.w3.org/TR/2001/REC-SVG-20010904/DTD/svg10.dtd">
<svg version="1.0" id="Layer_1" xmlns="http://www.w3.org/2000/svg" xmlns:xlink="http://www.w3.org/1999/xlink" x="0px" y="0px"
	 viewBox="0 0 24.4 24.3" enable-background="new 0 0 24.4 24.3" xml:space="preserve">
<path fill="#0096D6" d="M2.5,24c-0.4-0.4-1.8-1.8-2.2-2.2c-0.4-0.4-0.5-1.4,0-1.9c0.5-0.5,3-3.4,3.8-4.2c-0.8-1.5-1.2-3.2-1.2-5
	C2.9,4.8,7.7,0,13.6,0c5.9,0,10.7,4.8,10.7,10.7c0,5.9-4.8,10.7-10.7,10.7c-1.8,0-3.5-0.4-5.1-1.3c-0.9,0.9-1.8,1.7-2.7,2.5
	c-0.4,0.3-1,0.9-1.4,1.3C4,24.3,2.9,24.4,2.5,24z M13.6,5.3c-3,0-5.4,2.4-5.4,5.4s2.4,5.4,5.4,5.4s5.4-2.4,5.4-5.4
	S16.6,5.3,13.6,5.3z"/>
<path fill="#0096D6" d="M13.2,7.8c-0.6,1.1-0.3,2.2,1,2.9c0.4,0.2,0.9,0.3,1,1.3c0.1,1.6-0.8,2.5-2,2.7c0.1,0,0.3,0,0.5,0
	c2.2,0,4-1.8,4-4c0-1.3-0.6-2.4-1.5-3.1C15.3,7,13.9,6.6,13.2,7.8z"/>
</svg>
