<?xml version="1.0" encoding="utf-8"?>
<!-- Generator: Adobe Illustrator 17.1.0, SVG Export Plug-In . SVG Version: 6.00 Build 0)  -->
<!DOCTYPE svg PUBLIC "-//W3C//DTD SVG 1.0//EN" "http://www.w3.org/TR/2001/REC-SVG-20010904/DTD/svg10.dtd">
<svg version="1.0" id="Layer_1" xmlns="http://www.w3.org/2000/svg" xmlns:xlink="http://www.w3.org/1999/xlink" x="0px" y="0px"
	 viewBox="0 0 39 54.8" enable-background="new 0 0 39 54.8" xml:space="preserve">
<g>
	<path fill="#0096D6" d="M23.1,0c0.2,0,0.4,0,0.6,0c0.1,0,0.1,0,0.2,0.1c1.7,0.3,3,1.3,3.5,2.9c0.6,1.8,0.6,3.6,0,5.3
		c-0.4,1.1-0.9,2.1-1.4,3.1c-0.4,1-0.8,1.9-1.2,3c-0.1,0.4-0.1,0.9-0.1,1.4c0,0.2,0.2,0.3,0.4,0.3c0.3,0,0.7,0,1,0
		c2.7-0.1,5.5-0.1,8.2,0.2c0.6,0.1,1.2,0.1,1.7,0.5c1.1,0.9,1.9,2,2.3,3.5c0.1,0.4,0,0.7-0.2,1c-0.2,0.3-0.4,0.6-0.7,0.9
		c-0.5,0.6-0.5,1.1-0.1,1.8c0.3,0.4,0.5,0.9,0.8,1.3c0.4,0.7,0.4,1-0.1,1.7c-0.3,0.4-0.6,0.7-0.9,1.1c-0.4,0.5-0.5,1-0.3,1.6
		c0.2,0.4,0.3,0.8,0.5,1.2c0.4,0.9,0.2,1.7-0.5,2.3c-0.4,0.4-0.8,0.8-1.2,1.2c-0.3,0.3-0.4,0.7-0.4,1.1c0,0.4,0,0.7,0,1.1
		c0,0.5-0.1,0.9-0.4,1.3c-0.5,0.5-1,1.1-1.6,1.6c-0.6,0.5-1.3,0.9-2.1,0.9c-1,0.1-2.1,0.2-3.1,0.2c-2.3,0-4.6-0.1-6.9-0.2
		c-1.1,0-2.2-0.1-3.2-0.3c-2.6-0.4-5.2-1-7.8-1.4c-0.3-0.1-0.4-0.2-0.4-0.5c0-5.2,0-10.4,0-15.6c0-0.5,0-0.5,0.5-0.5
		c0.7,0,1.3-0.2,1.8-0.7c0.5-0.6,1.1-1.1,1.5-1.8c1.2-1.8,2.1-3.8,2.9-5.8c0.5-1.3,1.2-2.3,2.4-3.1c1.6-1.1,2.4-2.7,2.9-4.5
		c0.4-1.6,0.6-3.3,0.7-4.9C22.4,0.5,22.6,0.1,23.1,0z"/>
	<path fill="#0096D6" d="M0,22.4c0.1-0.3,0.3-0.6,0.5-0.9C0.8,21.2,1.2,21,1.7,21c1.6,0,3.1,0,4.7,0c1,0,1.7,0.6,1.7,1.7
		c0,5.1,0,10.1,0,15.2c0,1-0.7,1.7-1.7,1.7c-1.4,0-2.8,0-4.3,0c-1,0-1.8-0.3-2.1-1.4C0,33,0,27.7,0,22.4z"/>
</g>
<g>
	<path fill="#0096D6" d="M0,46h1.1v5.1c0,2.1,0.9,2.7,2,2.7c1.1,0,2-0.7,2-2.7V46h1v5c0,2.8-1.3,3.7-3.1,3.7S0,53.8,0,51.1V46z"/>
	<path fill="#0096D6" d="M8.4,46h1.1l3.1,5.4l0.9,1.8h0.1c-0.1-0.9-0.1-1.8-0.1-2.7V46h1v8.6h-1.1l-3.1-5.4l-0.9-1.8H9.3
		c0.1,0.9,0.1,1.8,0.1,2.7v4.5h-1V46z"/>
	<path fill="#0096D6" d="M16.8,46h1.1v7.7h3.7v0.9h-4.8V46z"/>
	<path fill="#0096D6" d="M23.1,46h1.1v8.6h-1.1V46z"/>
	<path fill="#0096D6" d="M26.5,46h1.1v4.3h0l3.6-4.3h1.2l-2.7,3.3l3.1,5.3h-1.2L29,50.2l-1.5,1.7v2.7h-1.1V46z"/>
	<path fill="#0096D6" d="M34,46h4.9V47h-3.8v2.7h3.2v0.9h-3.2v3.1h4v0.9H34V46z"/>
</g>
</svg>
